REM DIRINDEX 1\3,1\2\4,1\2\5,1\2\6
REM DIRNAME cjc137,folder01,folder02,folder03,folder04,folder05
TITLE ""
FILE "047.mp3" MP3
  TRACK 01 AUDIO
    TITLE "0:"
    INDEX 01 00:00:00
  TRACK 02 AUDIO
    TITLE "4:cjc137_1930"
    INDEX 01 00:00:03
  TRACK 03 AUDIO
    TITLE "0:"
    INDEX 01 00:01:03
  TRACK 04 AUDIO
    TITLE "6:cjc137_1931"
    INDEX 01 00:01:17
  TRACK 05 AUDIO
    TITLE "0:"
    INDEX 01 00:02:20
  TRACK 06 AUDIO
    TITLE "5:cjc137_1932"
    INDEX 01 00:02:30
  TRACK 07 AUDIO
    TITLE "0:"
    INDEX 01 00:03:29
  TRACK 08 AUDIO
    TITLE "4:cjc137_1933"
    INDEX 01 00:04:46
  TRACK 09 AUDIO
    TITLE "0:"
    INDEX 01 00:05:52
  TRACK 10 AUDIO
    TITLE "6:cjc137_1934"
    INDEX 01 00:05:61
  TRACK 11 AUDIO
    TITLE "0:"
    INDEX 01 00:06:55
  TRACK 12 AUDIO
    TITLE "5:cjc137_1935"
    INDEX 01 00:06:65
  TRACK 13 AUDIO
    TITLE "0:"
    INDEX 01 00:07:74
  TRACK 14 AUDIO
    TITLE "4:cjc137_1936"
    INDEX 01 00:09:06
  TRACK 15 AUDIO
    TITLE "0:"
    INDEX 01 00:10:41
  TRACK 16 AUDIO
    TITLE "6:cjc137_1937"
    INDEX 01 00:10:47
  TRACK 17 AUDIO
    TITLE "0:"
    INDEX 01 00:11:60
  TRACK 18 AUDIO
    TITLE "5:cjc137_1938"
    INDEX 01 00:11:66
  TRACK 19 AUDIO
    TITLE "0:"
    INDEX 01 00:13:24
  TRACK 20 AUDIO
    TITLE "4:cjc137_1939"
    INDEX 01 00:14:33
  TRACK 21 AUDIO
    TITLE "0:"
    INDEX 01 00:15:40
  TRACK 22 AUDIO
    TITLE "6:cjc137_1940"
    INDEX 01 00:15:48
  TRACK 23 AUDIO
    TITLE "0:"
    INDEX 01 00:16:53
  TRACK 24 AUDIO
    TITLE "5:cjc137_1941"
    INDEX 01 00:16:59
  TRACK 25 AUDIO
    TITLE "0:"
    INDEX 01 00:17:65
  TRACK 26 AUDIO
    TITLE "4:cjc137_1942"
    INDEX 01 00:18:72
  TRACK 27 AUDIO
    TITLE "0:"
    INDEX 01 00:20:10
  TRACK 28 AUDIO
    TITLE "6:cjc137_1943"
    INDEX 01 00:20:16
  TRACK 29 AUDIO
    TITLE "0:"
    INDEX 01 00:21:66
  TRACK 30 AUDIO
    TITLE "5:cjc137_1944"
    INDEX 01 00:21:72
  TRACK 31 AUDIO
    TITLE "0:"
    INDEX 01 00:23:10
  TRACK 32 AUDIO
    TITLE "4:cjc137_1945"
    INDEX 01 00:24:20
  TRACK 33 AUDIO
    TITLE "0:"
    INDEX 01 00:25:25
  TRACK 34 AUDIO
    TITLE "6:cjc137_1946"
    INDEX 01 00:25:33
  TRACK 35 AUDIO
    TITLE "0:"
    INDEX 01 00:26:44
  TRACK 36 AUDIO
    TITLE "5:cjc137_1947"
    INDEX 01 00:26:50
  TRACK 37 AUDIO
    TITLE "0:"
    INDEX 01 00:27:57
  TRACK 38 AUDIO
    TITLE "4:cjc137_1948"
    INDEX 01 00:28:64
  TRACK 39 AUDIO
    TITLE "0:"
    INDEX 01 00:29:70
  TRACK 40 AUDIO
    TITLE "6:cjc137_1949"
    INDEX 01 00:30:05
  TRACK 41 AUDIO
    TITLE "0:"
    INDEX 01 00:31:16
  TRACK 42 AUDIO
    TITLE "5:cjc137_1950"
    INDEX 01 00:31:24
  TRACK 43 AUDIO
    TITLE "0:"
    INDEX 01 00:32:31
  TRACK 44 AUDIO
    TITLE "4:cjc137_1951"
    INDEX 01 00:33:38
  TRACK 45 AUDIO
    TITLE "0:"
    INDEX 01 00:34:49
  TRACK 46 AUDIO
    TITLE "6:cjc137_1952"
    INDEX 01 00:34:57
  TRACK 47 AUDIO
    TITLE "0:"
    INDEX 01 00:36:01
  TRACK 48 AUDIO
    TITLE "5:cjc137_1953"
    INDEX 01 00:36:09
  TRACK 49 AUDIO
    TITLE "0:"
    INDEX 01 00:37:20
  TRACK 50 AUDIO
    TITLE "4:cjc137_1954"
    INDEX 01 00:38:28
  TRACK 51 AUDIO
    TITLE "0:"
    INDEX 01 00:39:29
  TRACK 52 AUDIO
    TITLE "6:cjc137_1955"
    INDEX 01 00:39:39
  TRACK 53 AUDIO
    TITLE "0:"
    INDEX 01 00:40:32
  TRACK 54 AUDIO
    TITLE "5:cjc137_1956"
    INDEX 01 00:40:40
  TRACK 55 AUDIO
    TITLE "0:"
    INDEX 01 00:41:40
  TRACK 56 AUDIO
    TITLE "4:cjc137_1957"
    INDEX 01 00:42:49
  TRACK 57 AUDIO
    TITLE "0:"
    INDEX 01 00:43:54
  TRACK 58 AUDIO
    TITLE "6:cjc137_1958"
    INDEX 01 00:43:60
  TRACK 59 AUDIO
    TITLE "0:"
    INDEX 01 00:44:63
  TRACK 60 AUDIO
    TITLE "5:cjc137_1959"
    INDEX 01 00:44:71
  TRACK 61 AUDIO
    TITLE "0:"
    INDEX 01 00:45:73
  TRACK 62 AUDIO
    TITLE "4:cjc137_1960"
    INDEX 01 00:47:07
  TRACK 63 AUDIO
    TITLE "0:"
    INDEX 01 00:48:40
  TRACK 64 AUDIO
    TITLE "6:cjc137_1961"
    INDEX 01 00:48:48
  TRACK 65 AUDIO
    TITLE "0:"
    INDEX 01 00:49:57
  TRACK 66 AUDIO
    TITLE "5:cjc137_1962"
    INDEX 01 00:49:63
  TRACK 67 AUDIO
    TITLE "0:"
    INDEX 01 00:51:20
  TRACK 68 AUDIO
    TITLE "4:cjc137_1963"
    INDEX 01 00:52:28
  TRACK 69 AUDIO
    TITLE "0:"
    INDEX 01 00:53:33
  TRACK 70 AUDIO
    TITLE "6:cjc137_1964"
    INDEX 01 00:53:41
  TRACK 71 AUDIO
    TITLE "0:"
    INDEX 01 00:54:62
  TRACK 72 AUDIO
    TITLE "5:cjc137_1965"
    INDEX 01 00:54:68
  TRACK 73 AUDIO
    TITLE "0:"
    INDEX 01 00:55:71
  TRACK 74 AUDIO
    TITLE "4:cjc137_1966"
    INDEX 01 00:57:03
  TRACK 75 AUDIO
    TITLE "0:"
    INDEX 01 00:58:07
  TRACK 76 AUDIO
    TITLE "6:cjc137_1967"
    INDEX 01 00:58:15
  TRACK 77 AUDIO
    TITLE "0:"
    INDEX 01 00:59:10
  TRACK 78 AUDIO
    TITLE "5:cjc137_1968"
    INDEX 01 00:59:16
  TRACK 79 AUDIO
    TITLE "0:"
    INDEX 01 01:00:17
  TRACK 80 AUDIO
    TITLE "4:cjc137_1969"
    INDEX 01 01:01:27
  TRACK 81 AUDIO
    TITLE "0:"
    INDEX 01 01:02:34
  TRACK 82 AUDIO
    TITLE "6:cjc137_1970"
    INDEX 01 01:02:42
  TRACK 83 AUDIO
    TITLE "0:"
    INDEX 01 01:03:59
  TRACK 84 AUDIO
    TITLE "5:cjc137_1971"
    INDEX 01 01:03:65
  TRACK 85 AUDIO
    TITLE "0:"
    INDEX 01 01:04:72
